<svg width="94" height="94" viewBox="0 0 94 94" fill="none" xmlns="http://www.w3.org/2000/svg">
<path d="M47 20.8889L28.7222 0H0L36.5556 44.3889L66.6382 31.9861L47 20.8889Z" fill="#55ACEE"/>
<path d="M65.2778 0L47 20.8889L61.0739 39.9813L64.2777 36.0934L94 0H65.2778Z" fill="#3B88C3"/>
<path d="M60.591 41.8457C60.7999 41.2791 60.9331 40.6759 60.9331 40.0362C60.9331 37.1535 58.5935 34.814 55.7108 34.814H38.3026C35.4173 34.814 33.0803 37.1535 33.0803 40.0362C33.0803 40.6759 33.2109 41.2791 33.4224 41.8457C24.9154 46.6136 19.1553 55.7029 19.1553 66.1473C19.1527 81.5294 31.6233 94 47.0054 94C62.3874 94 74.8581 81.5294 74.8581 66.1473C74.8581 55.7029 69.098 46.6136 60.591 41.8457Z" fill="#FF8A3B"/>
<path d="M36.8718 76.6362L39.9477 73.5603C40.2871 73.2156 40.778 73.1686 41.167 73.461C41.167 73.461 44.1933 75.7092 46.5355 75.7092C48.6374 75.7092 50.7864 73.9519 50.7864 71.803C50.7864 69.654 48.5878 67.8498 44.9767 67.8498H43.3082C42.8225 67.8498 42.3838 67.4111 42.3838 66.9228V62.8704C42.3838 62.3325 42.8225 61.9434 43.3082 61.9434H44.9767C48.3946 61.9434 50.1989 60.2854 50.1989 58.186C50.1989 56.0841 48.3946 54.5253 46.2927 54.5253C44.1437 54.5253 42.7781 55.648 42.047 56.4758C41.7023 56.8674 41.12 56.8674 40.731 56.528L37.7517 53.5983C37.3574 53.2537 37.407 52.6714 37.7517 52.3293C37.7517 52.3293 41.7545 48.0314 47.0734 48.0314C52.7369 48.0314 57.6197 51.499 57.6197 56.9667C57.6197 60.724 54.7866 63.5075 52.5907 64.531V64.6799C54.8858 65.6564 58.497 68.6827 58.497 72.8814C58.497 78.2028 53.8597 82.2083 47.1204 82.2083C40.9738 82.2083 37.8457 79.1794 36.8222 77.8634C36.5271 77.5135 36.5793 76.9756 36.8718 76.6362Z" fill="#7C4119"/>
</svg>
