<svg width="74" height="74" viewBox="0 0 74 74" fill="none" xmlns="http://www.w3.org/2000/svg">
<path d="M37.2706 42.7149C19.0445 42.7149 4.27069 42.2656 4.27069 55.5498C4.27069 68.8281 19.0445 71.8496 37.2706 71.8496C55.4967 71.8496 70.2706 68.8281 70.2706 55.5498C70.2706 42.2676 55.4967 42.7149 37.2706 42.7149Z" fill="#D99E82"/>
<path d="M69.3039 43.7234C69.3039 43.7234 53.3183 41.7583 37.2706 41.6745C21.2228 41.7583 5.23729 43.7234 5.23729 43.7234C3.65605 56.6522 16.7844 61.9783 37.2706 61.9783C57.7567 61.9783 70.8851 56.6522 69.3039 43.7234V43.7234Z" fill="#662113"/>
<path d="M68.1679 38.5551L6.21162 39.8452C4.07218 39.8452 2.28088 44.2966 4.55064 45.4608C21.4872 50.8688 35.1019 56.3407 35.1019 56.3407C36.9729 57.4031 37.605 57.4071 39.478 56.3467C39.478 56.3467 58.2779 48.6221 70.3541 45.377C72.0676 44.9177 70.3054 38.5551 68.1679 38.5551Z" fill="#FFCC4D"/>
<path d="M69.7998 38.7229C66.1044 35.2261 66.3184 37.0873 63.4865 36.2665C62.411 35.955 54.7148 25.7402 37.1733 25.7402H37.1344C19.5929 25.7402 11.8968 35.955 10.8212 36.2665C7.98938 37.0873 8.20332 35.2261 4.50792 38.7229C2.81192 40.3285 2.35292 41.1632 4.14227 41.5786C6.83797 42.2037 6.5929 43.8792 8.52424 44.4623C10.8621 45.1673 11.8229 43.8792 15.5922 44.4064C18.8072 44.8557 19.0172 49.1374 22.2614 49.1374C25.5056 49.1374 25.5056 47.5397 28.7478 47.5397C31.99 47.5397 33.9077 51.8254 37.1519 51.8254C40.3961 51.8254 42.3119 47.5397 45.556 47.5397C48.8002 47.5397 48.8002 49.1374 52.0424 49.1374C55.2866 49.1374 55.4967 44.8557 58.7117 44.4064C62.481 43.8812 63.4437 45.1673 65.7796 44.4623C67.7109 43.8792 67.4659 42.2057 70.1616 41.5786C71.9548 41.1652 71.4978 40.3285 69.7998 38.7229V38.7229Z" fill="#77B255"/>
<path d="M68.5394 34.9445C68.5394 40.9036 54.5397 43.7175 37.2705 43.7175C20.0013 43.7175 6.00159 40.9036 6.00159 34.9445C6.00159 24.1545 7.88041 24.1545 37.2705 24.1545C66.6606 24.1545 68.5394 24.1565 68.5394 34.9445Z" fill="#DD2E44"/>
<path d="M37.2706 3C19.0445 3 4.27069 11.769 4.27069 25.0512C4.27069 37.283 19.0445 37.7823 37.2706 37.7823C55.4967 37.7823 70.2706 37.283 70.2706 25.0512C70.2706 11.767 55.4967 3 37.2706 3Z" fill="#D99E82"/>
<path d="M23.2358 9.33257C22.2672 8.69552 20.9816 8.98709 20.3631 9.98161C19.7446 10.9761 20.0266 12.2982 20.9952 12.9312C21.9638 13.5683 24.4183 14.0436 25.0388 13.049C25.6573 12.0545 24.2044 9.96763 23.2358 9.33257V9.33257ZM42.1679 7.26565C41.0749 7.62911 39.1552 9.27466 39.5111 10.397C39.867 11.5193 42.3585 11.6911 43.4516 11.3276C44.5446 10.9641 45.1417 9.75794 44.7858 8.63561C44.4318 7.51528 43.2571 6.90019 42.1679 7.26565ZM63.3854 21.3148C62.5062 20.5559 60.3026 21.7641 59.5616 22.6667C58.8225 23.5714 58.9373 24.9174 59.8164 25.6763C60.6955 26.4351 62.0083 26.3173 62.7474 25.4147C63.4884 24.51 64.2664 22.0736 63.3854 21.3148ZM56.2999 11.3296C55.3313 10.6945 54.0457 10.9861 53.4253 11.9806C52.8068 12.9752 53.0907 14.2952 54.0593 14.9303C55.0279 15.5673 57.4824 16.0426 58.1009 15.0481C58.7214 14.0516 57.2685 11.9647 56.2999 11.3296ZM27.1257 25.3088C26.1571 24.6738 24.8715 24.9653 24.2511 25.9598C23.6326 26.9524 23.9165 28.2744 24.8851 28.9075C25.8537 29.5445 28.3082 30.0218 28.9267 29.0253C29.5472 28.0308 28.0943 25.9439 27.1257 25.3088V25.3088ZM33.05 15.7071C32.3965 16.6777 31.8441 19.1799 32.7913 19.8509C33.7366 20.5219 35.8196 19.104 36.4731 18.1335C37.1266 17.1629 36.8874 15.8329 35.9421 15.1619C34.9988 14.4909 33.7016 14.7365 33.05 15.7071V15.7071ZM48.5201 25.3088C47.5515 24.6738 46.2659 24.9653 45.6455 25.9598C45.027 26.9524 45.311 28.2764 46.2795 28.9075C47.2481 29.5445 49.7026 30.0218 50.3211 29.0253C50.9416 28.0308 49.4887 25.9439 48.5201 25.3088V25.3088ZM11.8851 17.5464C11.1188 18.4271 10.2649 20.8375 11.1227 21.6243C11.9765 22.4111 14.2171 21.2768 14.9834 20.3961C15.7516 19.5174 15.6777 18.1674 14.822 17.3786C13.9681 16.5918 12.6514 16.6677 11.8851 17.5464V17.5464Z" fill="#FFE8B6"/>
</svg>
