<svg width="74" height="74" viewBox="0 0 74 74" fill="none" xmlns="http://www.w3.org/2000/svg">
<path d="M50.0185 15.168C43.3015 15.168 43.3015 17.1919 36.5846 17.1919C29.8677 17.1919 29.8677 15.168 23.1508 15.168C14.1949 15.168 3 19.2158 3 33.3833C3 55.6465 16.4338 73.8618 25.3897 73.8618C32.1067 73.8618 32.1067 71.8379 36.5846 71.8379C41.0626 71.8379 41.0626 73.8618 47.7795 73.8618C56.7354 73.8618 70.1692 55.6465 70.1692 33.3833C70.1692 19.2138 58.9744 15.168 50.0185 15.168Z" fill="#77B255"/>
<path d="M35.042 16.949C35.042 16.949 31.0678 7.4892 20.3095 4.68404C11.7052 2.44153 6.1637 5.21026 6.1637 5.21026C6.1637 5.21026 12.9075 13.2877 19.3624 14.9696C25.8152 16.6495 35.042 16.949 35.042 16.949Z" fill="#3E721D"/>
<path d="M36.5846 21.2398C35.3487 21.2398 34.3456 20.333 34.3456 19.2158C34.3456 12.2515 37.0324 5.82757 41.7186 1.59352C42.594 0.802161 44.0091 0.802161 44.8845 1.59352C45.7599 2.38487 45.7599 3.66602 44.8845 4.45535C41.0312 7.9365 38.8236 13.3161 38.8236 19.2158C38.8236 20.333 37.8205 21.2398 36.5846 21.2398Z" fill="#662113"/>
</svg>
