<svg width="94" height="94" viewBox="0 0 94 94" fill="none" xmlns="http://www.w3.org/2000/svg">
<path d="M47 20.8889L28.7222 0H0L36.5556 44.3889L66.6382 31.9861L47 20.8889Z" fill="#55ACEE"/>
<path d="M65.2778 0L47 20.8889L61.0739 39.9813L64.2777 36.0934L94 0H65.2778Z" fill="#3B88C3"/>
<path d="M60.5905 41.8457C60.7994 41.2791 60.9326 40.6759 60.9326 40.0362C60.9326 37.1535 58.593 34.814 55.7103 34.814H38.3021C35.4168 34.814 33.0798 37.1535 33.0798 40.0362C33.0798 40.6759 33.2104 41.2791 33.4219 41.8457C24.9149 46.6136 19.1548 55.7029 19.1548 66.1473C19.1522 81.5294 31.6228 94 47.0049 94C62.387 94 74.8576 81.5294 74.8576 66.1473C74.8576 55.7029 69.0975 46.6136 60.5905 41.8457Z" fill="#FFAC33"/>
<path d="M50.6655 48.5666H46.1718L39.0434 54.1335C38.8972 54.2797 38.751 54.6714 38.751 54.8646V57.9405C38.751 58.4261 39.1426 58.8648 39.6309 58.8648H44.3179V80.8347C44.3179 81.3256 44.7095 81.7616 45.2448 81.7616H50.6655C51.1511 81.7616 51.5428 81.323 51.5428 80.8347V49.4909C51.5428 49.0053 51.1538 48.5666 50.6655 48.5666Z" fill="#9E5200"/>
</svg>
