<svg width="94" height="94" viewBox="0 0 94 94" fill="none" xmlns="http://www.w3.org/2000/svg">
<path d="M47 20.8889L28.7222 0H0L36.5556 44.3889L66.6382 31.9861L47 20.8889Z" fill="#55ACEE"/>
<path d="M65.2778 0L47 20.8889L61.0739 39.9813L64.2777 36.0934L94 0H65.2778Z" fill="#3B88C3"/>
<path d="M60.5905 41.8457C60.7994 41.2791 60.9326 40.6759 60.9326 40.0362C60.9326 37.1535 58.593 34.814 55.7103 34.814H38.3021C35.4168 34.814 33.0798 37.1535 33.0798 40.0362C33.0798 40.6759 33.2104 41.2791 33.4219 41.8457C24.9149 46.6136 19.1548 55.7029 19.1548 66.1473C19.1522 81.5294 31.6228 94 47.0049 94C62.387 94 74.8576 81.5294 74.8576 66.1473C74.8576 55.7029 69.0975 46.6136 60.5905 41.8457Z" fill="#CCD6DD"/>
<path d="M57.4496 75.516H48.1984C50.4909 72.2939 54.4964 67.0717 56.0578 64.2856C57.2302 61.9904 57.9613 60.5282 57.9613 57.9406C57.9613 52.5199 53.8619 48.0784 46.8798 48.0784C41.0701 48.0784 37.1142 52.862 37.1142 52.862C36.7722 53.2537 36.8218 53.8385 37.1638 54.1336L40.1431 57.1599C40.5322 57.5515 41.1197 57.5515 41.5087 57.1599C42.4357 56.1337 44.2425 54.7185 46.2427 54.7185C48.9765 54.7185 50.5406 56.3765 50.5406 58.233C50.5406 59.5987 49.9061 60.9669 49.2716 61.9434C46.3889 66.3353 39.1639 76.1505 36.3335 79.8609V80.8374C36.3335 81.3283 36.7226 81.7644 37.2604 81.7644H57.4496C57.9352 81.7644 58.3765 81.3257 58.3765 80.8374V76.4455C58.3791 75.9547 57.9352 75.516 57.4496 75.516Z" fill="#627077"/>
</svg>
