<svg width="74" height="74" viewBox="0 0 74 74" fill="none" xmlns="http://www.w3.org/2000/svg">
<path d="M27.1792 65.3816H5.02757C5.02757 65.3816 1 65.3816 1 61.5561L1 51.9926C1 48.1671 5.02757 48.1671 5.02757 48.1671H27.1792V65.3816Z" fill="#D99E82"/>
<path d="M25.1653 48.1671H53.3583V65.3816H25.1653V48.1671Z" fill="#E1E8ED"/>
<path d="M63.4272 48.1671H51.3445V65.3816H63.4272C63.4272 65.3816 67.4547 65.3816 67.4547 61.5561V51.9926C67.4547 48.1671 63.4272 48.1671 63.4272 48.1671Z" fill="#66757F"/>
<path d="M56.963 46.2544C55.9803 46.2544 55.1184 45.5696 54.9734 44.619C54.915 44.2365 53.6564 35.2008 63.9851 29.3134C69.0155 26.4463 70.1533 21.192 69.084 17.5234C68.5845 15.8096 66.7963 11.8254 60.9926 11.8254C54.6653 11.8254 53.012 15.211 52.6354 16.7258C52.0675 19.0153 52.6354 20.821 53.894 21.6874C55.2009 22.5864 56.7596 22.3224 57.7846 21.7199C58.568 21.2609 58.9808 20.4843 58.9808 19.4763C58.9808 18.4205 59.881 17.5636 60.9946 17.5636C62.1082 17.5636 63.0084 18.4205 63.0084 19.4763C63.0084 21.8117 61.8766 23.8163 59.9031 24.9735C57.6759 26.2799 54.2263 26.0025 52.0111 24.8262C49.2905 23.3802 47.8607 19.8091 48.8112 15.9913C50.0517 10.9877 54.6069 8 60.9926 8C66.8487 8 71.4361 11.2574 72.9645 16.502C74.7548 22.638 71.9133 29.2541 66.0552 32.5918C58.0001 37.1824 58.9466 43.9955 58.9566 44.0643C59.1177 45.1106 58.3545 46.0822 57.255 46.2333C57.1583 46.2486 57.0597 46.2544 56.963 46.2544V46.2544Z" fill="#CCD6DD"/>
</svg>
