<svg width="67" height="67" viewBox="0 0 67 67" fill="none" xmlns="http://www.w3.org/2000/svg">
<path d="M55.7102 53.1641C56.4124 53.8663 56.4124 55.006 55.7102 55.71C55.0062 56.4122 53.8665 56.4122 53.1643 55.71L28.3482 30.8921C27.646 30.1899 27.646 29.0502 28.3482 28.348C29.0504 27.6458 30.1882 27.6458 30.8923 28.348L55.7102 53.1641Z" fill="#55ACEE"/>
<path d="M65.2249 61.324C66.3021 62.4012 66.3021 64.1475 65.2249 65.2229C64.1495 66.3001 62.4032 66.3001 61.326 65.2229L50.9289 54.8258C49.8517 53.7486 49.8517 52.0023 50.9289 50.927C52.0043 49.8497 53.7506 49.8497 54.8278 50.927L65.2249 61.324V61.324Z" fill="#292F33"/>
<path d="M4.35367 9.4142L5.6533 8.11457L27.7562 30.2046L26.4565 31.5042L4.35367 9.4142ZM6.95844 4.21201L8.25807 2.91238L31.6551 26.3094L30.3536 27.609L6.95844 4.21201Z" fill="#99AAB5"/>
<path d="M1.75812 17.2101L17.3555 1.61276L18.6551 2.91239L3.05775 18.5098L1.75812 17.2101ZM3.05775 23.7083L22.5577 4.21202L23.8573 5.51165L4.35737 25.0098L3.05775 23.7083ZM6.95847 27.609L27.7544 6.81311L29.054 8.11274L8.2581 28.9086L6.95847 27.609ZM12.157 30.2101L30.3536 12.0116L31.6532 13.3113L13.4548 31.5097L12.157 30.2101ZM17.3555 32.8075L32.9529 17.2101L34.2525 18.5098L18.6551 34.109L17.3555 32.8075Z" fill="#99AAB5"/>
<path d="M1.75812 14.6109L3.05775 13.3113L22.5577 32.8075L21.2581 34.1072L1.75812 14.6109ZM13.4585 2.91239L14.7562 1.61276L34.2543 21.109L32.9547 22.4105L13.4585 2.91239Z" fill="#99AAB5"/>
<path d="M4.39235 4.39217C-1.98815 10.7745 -1.34109 21.7671 5.8372 28.9454C13.0173 36.1255 24.0081 36.7707 30.3886 30.3903C36.7709 24.0079 36.1257 13.019 28.9437 5.83885C21.7655 -1.34127 10.7747 -1.98833 4.39235 4.39217ZM28.0062 28.0061C22.9824 33.03 14.1552 32.3516 8.29123 26.4895C2.42912 20.6274 1.75265 11.8021 6.77653 6.77635C11.8023 1.75063 20.6276 2.43078 26.4897 8.29289C32.3518 14.155 33.032 22.9822 28.0062 28.0061Z" fill="#55ACEE"/>
<path d="M31.6533 26.3094C32.372 27.0281 32.3702 28.1917 31.6533 28.9086L29.0522 31.5097C28.3353 32.2266 27.1717 32.2285 26.4529 31.5097C25.7342 30.791 25.7342 29.6274 26.4529 28.9086L29.0522 26.3094C29.7709 25.5906 30.9345 25.5906 31.6533 26.3094Z" fill="#226699"/>
<path d="M32.9529 30.2083C33.6717 30.927 33.6717 32.0906 32.9529 32.8094C32.2342 33.5281 31.0706 33.5281 30.3537 32.8094L29.0541 31.5097C28.3353 30.791 28.3371 29.6274 29.0541 28.9086C29.7728 28.1899 30.9346 28.1899 31.6551 28.9086L32.9529 30.2083V30.2083Z" fill="#226699"/>
<path d="M54.1937 50.2964C55.2709 51.3718 53.9694 51.8185 52.8941 52.8957C51.8169 53.971 51.3702 55.2707 50.2948 54.1953C49.2176 53.1181 49.2176 51.3718 50.2948 50.2964C51.3702 49.2192 53.1183 49.2192 54.1937 50.2964V50.2964Z" fill="#226699"/>
<path d="M39.9474 5.70467C38.5117 7.14033 38.5117 9.46753 39.9474 10.9032L41.247 12.2028L42.5466 10.9032L45.1459 8.30393L46.4492 7.0043L45.1459 5.70467C43.7139 4.26902 41.3849 4.26902 39.9474 5.70467V5.70467Z" fill="#BE1931"/>
<path d="M41.2526 12.201L46.4548 7.00244L47.7544 8.30207L42.5522 13.5024L41.2526 12.201Z" fill="#99AAB5"/>
<path d="M42.5484 13.5024L47.7506 8.30392C50.4583 9.20098 64.5245 17.6219 64.0392 18.109C62.6458 19.5043 60.5245 18.4785 60.5245 18.4785C60.5245 18.4785 62.0759 19.9601 60.7396 21.2947C59.4032 22.6293 57.9252 21.0778 57.9252 21.0778C57.9252 21.0778 59.7065 22.4399 58.1991 23.9528C56.6807 25.4712 55.3278 23.6789 55.3278 23.6789C55.3278 23.6789 56.6679 25.4822 55.508 26.6439C54.3444 27.8039 52.7249 26.2781 52.7249 26.2781C52.7249 26.2781 53.4933 28.1127 52.0962 29.5061C51.4308 30.1752 43.6238 16.0318 42.5484 13.5024V13.5024Z" fill="#E1E8ED"/>
<path d="M48.4106 14.2359C49.4731 12.9804 58.3959 21.087 56.8297 22.6531C55.2617 24.2175 47.133 15.7432 48.4106 14.2359V14.2359ZM51.5448 27.927C52.7948 27.1127 45.8977 17.2359 45.0466 17.9509C44.9897 17.9987 44.9639 18.0833 44.9492 18.1825C46.5724 21.1715 48.6367 24.7891 50.1404 27.1292C50.758 27.7579 51.2727 28.1035 51.5448 27.927V27.927ZM52.0448 10.9546C51.326 11.8039 61.2065 18.7009 62.0209 17.4528C62.2323 17.1256 61.7084 16.4583 60.815 15.6697C58.5815 14.2322 55.565 12.4215 52.9382 10.9436C52.497 10.8241 52.1698 10.8076 52.0448 10.9546ZM46.5503 16.2101C47.3334 15.4215 55.0815 24.6458 53.9069 25.5722C52.7341 26.4913 45.6073 17.1605 46.5503 16.2101ZM50.3021 12.4583C49.5154 13.2414 58.7396 20.9877 59.6624 19.8149C60.5852 18.6403 51.2543 11.5135 50.3021 12.4583V12.4583Z" fill="#CCD6DD"/>
</svg>
