<svg width="74" height="74" viewBox="0 0 74 74" fill="none" xmlns="http://www.w3.org/2000/svg">
<path d="M32.2663 70.8322L32.1568 70.8644C32.1947 70.7277 32.2452 70.4824 32.2452 70.0944C32.2452 69.4852 31.9167 68.3472 31.8262 68.1844C31.7356 68.0215 31.6366 67.9049 31.4176 67.9632C31.2513 68.0075 29.9751 68.6186 29.1602 68.6488C27.646 68.7031 26.9153 67.4063 26.9153 67.4063C26.9153 67.4063 26.0751 67.8647 25.4075 68.2366C24.7378 68.6086 23.9608 69.1655 23.388 69.4972C22.8994 69.7807 22.3414 69.9154 21.7644 69.9858C21.1874 70.0561 20.7177 70.032 20.5788 70.0441C20.4398 70.0561 19.271 69.9214 19.2289 71.0252L19.2352 71.2805L19.1215 71.2283C19.1215 71.2283 19.0204 71.5701 19.012 71.6344C19.0036 71.7007 18.9615 71.7389 19.1089 71.8274C19.2563 71.9159 19.9049 72.1812 20.7304 72.3783C21.5559 72.5753 22.8952 72.8668 23.9292 72.8668C24.9632 72.8668 25.8434 72.6698 26.353 72.5532C26.8648 72.4366 27.9598 72.2134 28.0651 72.2597C28.1704 72.3059 28.3094 72.6437 28.4294 72.7482C28.5516 72.8527 31.8199 72.5854 32.0536 72.5391C32.2895 72.4929 32.3611 72.2999 32.3611 72.2134V70.9086C32.3653 70.8543 32.3168 70.8181 32.2663 70.8322V70.8322ZM55.3192 63.2888L54.2578 62.4263C54.2178 62.3942 54.1567 62.4042 54.1336 62.4505L54.0873 62.553C54.0009 62.4344 53.8346 62.2353 53.5208 61.98C53.0259 61.5779 51.8845 61.0672 51.6929 61.029C51.5013 60.9888 51.3412 60.9848 51.2443 61.1838C51.1706 61.3366 50.8253 62.6837 50.3093 63.3069C49.3533 64.463 47.816 64.1473 47.816 64.1473L47.4938 65.812C47.3527 66.5519 47.2916 67.4968 47.1821 68.1402C47.0895 68.689 46.8305 69.1916 46.504 69.6641C46.1797 70.1386 45.8512 70.4683 45.767 70.5809C45.6849 70.6915 44.8046 71.4675 45.6722 72.2295L45.8849 72.3923L45.7691 72.4426C45.7691 72.4426 45.9797 72.7422 46.026 72.7924C46.0723 72.8427 46.0787 72.899 46.245 72.8487C46.4114 72.7985 47.0579 72.4929 47.7634 72.0124C48.4709 71.5298 49.5912 70.7317 50.2735 69.9657C50.9579 69.1997 51.377 68.4176 51.6213 67.9632C51.8656 67.5089 52.4068 66.5498 52.5142 66.5016C52.6216 66.4533 52.9859 66.574 53.1523 66.5539C53.3165 66.5338 55.2602 63.9362 55.3781 63.7331C55.4961 63.5301 55.3887 63.3451 55.3192 63.2888V63.2888Z" fill="#292F33"/>
<path d="M34.9807 25.1297C36.9328 27.0597 41.4289 30.94 41.5278 31.4044C42.0564 33.8633 42.8208 36.6438 42.6229 38.3487C42.4797 39.5851 43.4147 40.9583 43.7832 41.5313C44.2423 42.243 45.4279 43.3367 46.186 43.2603C46.6577 43.2141 47.38 42.3958 46.9947 41.9816C46.2429 41.1774 46.3671 39.953 45.8954 38.8473C44.9499 36.6257 45.8006 32.4257 44.5034 29.6734C43.9643 28.5334 42.9598 26.2696 38.5565 22.3833C37.4804 23.3122 34.9807 25.1297 34.9807 25.1297V25.1297Z" fill="#EEC2AD"/>
<path d="M28.162 69.2801C25.496 69.4993 24.2598 68.8117 24.5378 68.4438C24.8853 67.9854 24.8074 67.6456 24.8116 67.3661C24.8705 62.4585 23.8197 55.3213 23.8197 55.3213C23.8197 54.6216 23.826 53.6867 24.4767 52.1809C26.1151 48.3951 32.797 36.7202 32.797 36.7202C33.951 34.7941 36.5265 34.1206 38.5439 35.2244C40.5634 36.3261 40.9067 38.0491 40.1107 40.711C38.605 45.7533 33.8668 51.9738 31.8915 55.7435C32.3632 60.0077 31.5251 63.4899 31.9652 67.5189C32.0284 68.098 30.828 69.061 28.162 69.2801V69.2801Z" fill="#2A6797"/>
<path d="M50.7684 64.7123C50.0019 65.8241 48.7257 66.6061 47.4033 66.397C44.7309 62.5289 36.9687 55.6992 36.9687 55.6992C36.4612 55.1966 35.7852 54.5191 35.1577 53.0031C33.5825 49.1933 29.8972 36.3623 29.8972 36.3623C29.3244 34.2111 30.689 32.0196 32.9423 31.4768C35.1956 30.9299 36.6971 31.9432 38.0595 34.384C40.6434 39.0101 41.7595 46.6279 43.0799 50.6489C47.0179 53.8013 48.0982 57.8927 52.0825 61.0049C51.9456 62.7279 51.535 63.6004 50.7684 64.7123Z" fill="#4289C1"/>
<path d="M33.515 3.36608C30.1119 2.39904 25.3169 4.43164 24.8599 8.13497C24.2218 13.3019 27.646 17.3531 30.969 16.7318C34.4521 16.0804 36.5453 15.1596 37.6593 11.587C38.7712 8.01434 36.9181 4.33313 33.515 3.36608V3.36608Z" fill="#F7DECE"/>
<path d="M36.8023 12.554C41.1088 6.78993 29.6192 8.25961 29.6192 8.25961C27.4418 8.51494 29.257 11.8644 28.3999 13.8448C27.8124 15.2159 30.8427 15.6683 30.8427 15.6683C30.8427 15.6683 32.2031 15.5376 32.4179 17.1078L32.42 17.1219C32.4727 17.5219 32.4706 18.0025 32.3316 18.6559C31.6387 21.8928 36.2527 23.465 36.9434 20.222C37.2172 18.9393 36.9687 17.8497 36.6823 16.8504L36.6549 16.76C36.2232 15.2722 35.7389 13.9795 36.8023 12.554V12.554Z" fill="#F7DECE"/>
<path d="M37.7521 4.11599C35.9389 2.15174 30.3247 0.746401 27.1048 3.68373C24.6747 3.48268 23.9524 5.73243 24.2682 6.96687C24.521 7.95201 27.1154 8.00026 27.9303 9.84388C28.3368 9.33121 28.3663 8.34808 28.2231 7.8354C29.1096 8.52098 28.9306 10.5275 32.2663 11.5548C35.4925 12.548 35.1766 15.2179 35.1766 15.2179C35.1766 15.2179 36.7497 14.3434 37.7774 12.9883C39.7442 10.4028 39.7506 6.28129 37.7521 4.11599V4.11599Z" fill="#292F33"/>
<path d="M42.7724 40.7251C42.7724 40.7251 42.7724 42.7356 38.5607 42.7356H28.2462C30.352 33.5315 28.0482 30.9943 28.7537 25.4835C29.5139 19.5445 33.5698 15.8914 36.0715 16.758C39.9084 18.0869 41.7426 22.0677 42.2459 28.5354C42.7492 35.0032 42.7724 40.7251 42.7724 40.7251Z" fill="#FA743E"/>
<path d="M31.7167 24.2229C31.365 27.0356 31.0386 33.1354 30.708 33.5215C28.9538 35.5742 27.0817 38.025 25.4876 39.0081C24.3314 39.7198 23.7797 41.3684 23.5354 42.0379C23.2322 42.8703 23.0869 44.5269 23.6555 45.0677C24.0113 45.4055 25.1927 45.4236 25.2896 44.8466C25.4791 43.7227 26.6079 43.003 27.2417 41.8972C28.5137 39.6776 32.6812 37.5404 34.1742 34.6916C34.7934 33.5094 36.0611 31.2154 36.4549 25.1839C34.9387 24.9628 31.7167 24.2229 31.7167 24.2229V24.2229Z" fill="#F7DECE"/>
</svg>
